<?xml version="1.0" standalone="no"?>
<!DOCTYPE svg PUBLIC "-//W3C//DTD SVG 20010904//EN"
 "http://www.w3.org/TR/2001/REC-SVG-20010904/DTD/svg10.dtd">
<svg version="1.0" xmlns="http://www.w3.org/2000/svg"
 width="500.000000pt" height="500.000000pt" viewBox="0 0 500.000000 500.000000"
 preserveAspectRatio="xMidYMid meet">

<g transform="translate(0.000000,500.000000) scale(0.100000,-0.100000)"
fill="#000000" stroke="none">
<path d="M0 3765 l0 -1235 275 0 275 0 0 -30 0 -30 -275 0 -275 0 0 -1235 0
-1235 1235 0 1235 0 0 280 0 280 30 0 30 0 0 -280 0 -280 1235 0 1235 0 0
1235 0 1235 -275 0 -275 0 0 30 0 30 275 0 275 0 0 1235 0 1235 -1235 0 -1235
0 0 -280 0 -280 -30 0 -30 0 0 280 0 280 -1235 0 -1235 0 0 -1235z m1439 689
c136 -242 140 -254 94 -266 -7 -2 -70 100 -147 237 -132 235 -134 240 -113
252 12 7 25 12 28 13 3 0 65 -106 138 -236z m2382 165 c13 -7 18 -16 14 -27
-6 -16 -262 -430 -275 -445 -9 -10 -50 9 -50 22 0 12 279 461 286 461 3 0 14
-5 25 -11z m-3187 -921 c116 -72 215 -134 219 -138 10 -9 -9 -50 -22 -50 -9 0
-440 265 -454 279 -14 14 12 53 31 46 8 -3 110 -65 226 -137z m4054 -3 c-2 -2
-108 -62 -237 -135 -239 -134 -251 -138 -263 -92 -2 7 96 68 237 147 l240 134
13 -25 c8 -14 12 -27 10 -29z m-3139 -1057 c10 -24 53 -116 94 -205 64 -137
73 -163 57 -163 -13 0 -25 17 -41 55 l-23 55 -121 0 -121 0 -27 -55 c-15 -30
-33 -55 -41 -55 -12 0 -9 14 13 63 63 137 144 313 152 330 16 29 39 19 58 -25z
m455 31 c22 -6 52 -24 68 -39 23 -23 28 -37 28 -77 0 -90 -60 -132 -187 -133
l-73 0 0 -75 c0 -68 -2 -75 -20 -75 -19 0 -20 7 -20 198 0 109 3 202 7 205 10
11 154 8 197 -4z m423 -12 c38 -20 63 -63 63 -107 0 -84 -54 -122 -182 -128
l-88 -4 0 -74 c0 -59 -3 -74 -15 -74 -13 0 -15 30 -15 206 l0 206 103 -4 c71
-3 112 -9 134 -21z m193 -182 c0 -176 -2 -205 -15 -205 -13 0 -15 29 -15 205
0 176 2 205 15 205 13 0 15 -29 15 -205z m393 191 c52 -23 74 -43 60 -56 -8
-9 -18 -7 -41 10 -103 77 -255 13 -269 -113 -8 -69 4 -114 43 -157 61 -68 147
-77 225 -25 22 14 44 23 50 19 14 -9 -7 -32 -52 -54 -132 -68 -275 2 -302 148
-16 83 42 195 118 228 40 17 128 17 168 0z m187 -81 l0 -95 130 0 130 0 0 95
c0 78 3 95 15 95 13 0 15 -29 15 -205 0 -176 -2 -205 -15 -205 -12 0 -15 17
-15 95 l0 95 -130 0 -130 0 0 -95 c0 -78 -3 -95 -15 -95 -13 0 -15 29 -15 205
0 176 2 205 15 205 12 0 15 -17 15 -95z m450 -110 c0 -176 -2 -205 -15 -205
-13 0 -15 29 -15 205 0 176 2 205 15 205 13 0 15 -29 15 -205z m-2847 -929
l16 -24 -242 -136 -242 -135 -14 26 c-11 22 -11 27 0 34 69 41 455 258 460
258 4 1 14 -10 22 -23z m3593 -191 c121 -75 223 -140 227 -144 14 -14 -12 -53
-31 -46 -16 6 -430 262 -445 275 -10 9 9 50 22 50 5 0 107 -61 227 -135z
m-2925 -505 c10 -6 19 -15 19 -19 0 -14 -280 -461 -289 -461 -14 0 -44 27 -40
36 7 18 283 454 286 454 3 0 13 -5 24 -10z m2144 -277 l134 -238 -26 -13 c-21
-12 -27 -12 -34 0 -5 7 -66 114 -135 238 l-126 224 22 18 c13 10 25 17 27 14
2 -2 65 -111 138 -243z"/>
<path d="M1502 2620 c-5 -14 -29 -65 -51 -113 -23 -49 -41 -91 -41 -93 0 -2
47 -4 105 -4 l104 0 -18 43 c-10 23 -34 76 -54 117 -33 71 -35 74 -45 50z"/>
<path d="M1840 2550 l0 -100 70 0 c114 0 160 29 160 102 0 69 -49 98 -167 98
l-63 0 0 -100z"/>
<path d="M2220 2549 l0 -101 91 4 c88 3 92 4 120 36 33 37 37 76 13 111 -24
34 -75 51 -154 51 l-70 0 0 -101z"/>
</g>
</svg>
